<?xml version="1.0" standalone="no"?>
<!DOCTYPE svg PUBLIC "-//W3C//DTD SVG 20010904//EN"
 "http://www.w3.org/TR/2001/REC-SVG-20010904/DTD/svg10.dtd">
<svg version="1.0" xmlns="http://www.w3.org/2000/svg"
 width="300.000000pt" height="200.000000pt" viewBox="0 0 300.000000 200.000000"
 preserveAspectRatio="xMidYMid meet">
<metadata>
Created by potrace 1.10, written by Peter Selinger 2001-2011
</metadata>
<g transform="translate(0.000000,200.000000) scale(0.050000,-0.050000)"
fill="#000000" stroke="none">
<path d="M2667 3500 c-104 -22 -303 -122 -362 -184 -109 -112 -149 -178 -140
-226 5 -27 2 -44 -8 -38 -9 6 -17 -2 -17 -18 0 -15 -27 -76 -60 -136 -64 -116
-76 -232 -41 -388 36 -163 35 -281 -4 -274 -40 7 -75 -65 -75 -152 0 -78 139
-340 204 -387 31 -22 56 -55 56 -74 0 -19 18 -70 40 -114 27 -53 41 -121 43
-208 2 -148 29 -246 56 -203 20 33 60 12 63 -34 1 -19 11 -2 22 36 19 64 22
66 37 27 9 -24 26 -49 38 -56 12 -8 17 -22 10 -32 -6 -10 3 -13 20 -7 17 7 31
2 31 -10 0 -12 23 -22 51 -22 34 0 47 -8 37 -23 -10 -16 -4 -20 19 -11 22 8
39 2 46 -16 6 -16 19 -25 29 -19 10 6 18 -2 18 -17 0 -16 20 -35 45 -41 67
-18 99 -16 85 7 -7 11 2 20 19 20 17 0 31 9 31 19 0 32 114 82 152 67 25 -9
30 -6 18 14 -12 20 -5 23 27 15 27 -7 43 -2 43 14 0 14 18 41 40 61 41 37 54
90 22 90 -10 0 -24 -15 -31 -34 -11 -30 -16 -31 -31 -6 -14 22 -5 37 31 56 27
14 49 35 49 46 0 11 10 14 21 7 12 -7 17 -26 11 -41 -6 -15 -3 -28 6 -28 10 0
24 15 31 34 14 36 50 4 50 -44 0 -11 -8 -6 -19 10 -14 22 -19 23 -20 4 0 -44
41 -106 61 -93 10 6 19 -2 19 -19 0 -19 11 -26 30 -19 89 34 21 -147 -135
-359 -55 -75 -121 -187 -147 -250 -43 -108 -50 -115 -132 -130 -100 -19 -466
-6 -529 19 -119 47 -315 417 -268 506 9 17 23 78 31 136 27 201 -141 97 -198
-122 -33 -126 -61 -173 -103 -173 -14 0 -53 -23 -86 -51 -33 -27 -121 -76
-197 -108 -398 -168 -640 -289 -799 -400 l-177 -124 160 10 c88 5 191 16 228
24 48 10 64 8 54 -8 -10 -15 7 -23 51 -23 61 0 62 2 26 29 -37 26 -37 29 -3
42 22 9 31 27 24 49 -6 19 7 56 29 82 34 41 40 43 40 12 1 -20 24 -60 51 -90
l50 -54 2 60 c2 33 2 67 0 75 -1 8 12 15 29 15 19 0 26 9 17 23 -9 14 -5 18 9
9 43 -27 100 9 113 70 21 94 75 28 99 -122 1 -5 12 -27 24 -48 28 -49 52 -10
30 50 -9 26 -9 78 1 117 9 39 21 88 26 109 11 49 23 59 71 62 34 3 98 -63 76
-78 -4 -2 -33 -20 -64 -40 -77 -48 -43 -86 47 -55 67 23 206 -33 229 -92 14
-37 -25 -31 -107 17 -48 28 -59 30 -32 7 56 -48 311 -165 371 -171 86 -8 139
1 139 24 0 11 -29 19 -65 18 -100 -6 -125 -2 -161 25 -29 21 -12 25 104 25
146 0 179 12 150 55 -10 15 -2 9 19 -13 21 -23 32 -59 28 -85 -5 -26 2 -49 18
-55 15 -6 27 -25 27 -41 0 -20 19 -31 53 -31 30 0 48 6 41 13 -21 21 88 69
127 57 19 -7 40 -25 47 -41 28 -74 87 -30 101 76 18 138 80 196 204 192 93 -4
133 15 89 42 -20 12 -21 18 -2 24 14 5 26 38 28 73 2 65 14 72 104 65 37 -3
41 5 32 52 -9 50 -12 52 -26 16 -13 -32 -15 -30 -12 15 2 52 4 53 41 20 29
-25 41 -27 48 -9 4 14 17 20 27 14 10 -6 18 -3 18 8 0 10 -14 24 -31 31 -18 6
-26 3 -19 -8 7 -11 4 -20 -7 -20 -10 0 -24 14 -31 31 -6 17 -3 26 7 20 10 -7
24 -2 31 9 7 11 22 15 32 9 11 -7 33 -2 49 12 22 18 29 18 29 0 0 -14 10 -17
25 -8 43 27 72 24 99 -9 22 -26 21 -29 -2 -15 -21 13 -26 9 -17 -14 7 -17 -5
-65 -25 -105 l-38 -74 48 9 c27 5 44 2 38 -8 -6 -9 -1 -17 11 -17 11 0 21 -27
21 -60 0 -50 -8 -60 -48 -60 -27 0 -64 -6 -84 -13 -24 -10 -30 -6 -20 10 14
22 -32 6 -183 -63 -74 -34 -37 -38 57 -6 75 26 82 26 49 1 -21 -16 -44 -29
-52 -29 -7 0 -23 -23 -35 -50 -17 -37 -39 -50 -84 -50 -34 0 -60 -11 -60 -25
0 -14 -6 -45 -13 -70 -7 -27 -3 -45 11 -45 12 0 22 14 22 31 0 18 10 25 22 18
12 -8 28 -5 35 7 8 11 26 24 42 27 16 4 52 27 79 51 28 25 75 50 105 57 30 6
76 27 101 46 96 72 150 84 199 45 42 -35 43 -39 11 -71 -45 -45 -43 -85 6
-111 33 -17 35 -27 15 -49 -14 -15 -32 -23 -40 -18 -8 5 -15 0 -15 -12 0 -11
28 -21 61 -21 54 0 60 5 48 42 -8 27 -3 49 14 60 15 9 27 37 27 62 0 37 12 47
65 52 72 7 70 44 -2 44 -25 0 -76 22 -113 50 -37 27 -96 55 -130 61 -63 12
-80 88 -28 120 23 14 24 89 1 89 -9 0 -16 14 -16 30 0 17 10 30 22 30 40 0 88
-76 78 -123 -8 -42 -6 -42 22 8 18 30 37 55 43 55 6 0 4 -10 -4 -23 -9 -14 -5
-18 9 -9 13 8 24 30 25 48 2 19 10 7 18 -26 8 -33 16 -44 18 -25 3 51 39 43
65 -15 13 -27 39 -54 58 -60 63 -20 103 -203 61 -280 -27 -49 -16 -109 16 -91
17 10 32 30 33 45 2 49 33 136 48 136 9 0 13 23 10 50 -3 28 3 45 13 39 27
-17 22 59 -6 87 -13 13 -18 29 -11 36 7 6 54 -30 105 -81 51 -50 102 -86 113
-79 13 8 12 -4 -2 -31 -48 -90 114 -210 315 -234 113 -14 134 4 104 86 -19 52
-15 51 50 -23 38 -44 70 -91 70 -105 0 -16 29 -25 80 -25 78 0 80 2 68 55 -38
158 -272 311 -738 482 -154 57 -325 123 -380 146 -55 23 -180 71 -277 108
-196 73 -263 123 -280 210 -7 32 -30 76 -53 99 -46 46 -64 289 -34 465 15 87
22 96 92 117 165 49 322 351 262 507 -44 116 -233 -29 -215 -165 8 -59 0 -88
-37 -135 -26 -32 -48 -80 -48 -105 0 -43 -3 -44 -31 -15 -38 37 -69 40 -69 8
0 -13 -5 -18 -12 -12 -6 6 -1 32 13 56 16 31 28 37 38 20 9 -14 21 10 29 60
15 98 14 101 -42 86 -68 -18 -97 -246 -31 -249 20 0 25 -5 11 -11 -14 -6 -31
-9 -37 -7 -7 1 -24 -13 -39 -33 -22 -30 -25 -19 -23 80 3 118 -78 230 -238
327 -32 20 -16 22 86 12 87 -8 125 -5 125 11 0 13 -11 23 -24 23 -13 0 13 24
58 53 77 50 126 140 126 232 0 16 14 41 30 55 40 34 38 55 -9 70 -21 6 -67 38
-101 70 -126 118 -412 109 -490 -15 -33 -53 -53 -64 -116 -64 -42 -1 -71 7
-65 17 47 76 -192 153 -343 110 -52 -14 -87 -16 -91 -4 -3 10 -31 -1 -62 -25
-30 -24 -51 -56 -45 -71 10 -26 -61 -81 -80 -63 -5 5 -3 74 5 153 7 85 20 134
29 119 19 -31 13 -38 109 128 72 126 96 146 166 136 15 -2 21 6 14 18 -7 11 0
21 15 21 16 0 40 13 54 30 16 19 48 27 92 21 38 -4 80 3 94 15 14 13 38 27 54
30 17 3 74 24 128 46 107 45 281 70 357 51 92 -23 190 -117 353 -336 18 -25
30 -111 34 -258 5 -150 17 -239 39 -281 33 -64 21 -114 -14 -53 -33 60 -123
153 -99 103 11 -24 15 -48 9 -54 -6 -6 3 -32 21 -57 18 -25 32 -71 32 -102 l0
-56 65 45 c36 25 67 47 70 48 41 16 76 362 47 453 -12 36 -25 97 -30 135 -5
39 -18 93 -29 122 -41 108 -477 478 -563 478 -17 0 -41 9 -51 19 -27 27 -341
41 -442 21z m192 -154 c6 -5 -30 -7 -80 -5 -49 1 -134 -2 -189 -9 l-100 -12
90 28 c78 23 252 22 279 -2z m-222 -83 c28 -19 -63 -44 -144 -41 -36 1 -34 6
17 29 71 32 91 34 127 12z m-237 -103 c-25 -16 -23 -19 9 -20 35 0 36 -4 10
-29 -30 -29 -139 -21 -139 10 0 8 25 25 55 36 72 26 103 27 65 3z m985 -611
c31 -22 54 -59 54 -85 l1 -47 -55 39 c-100 70 -166 81 -94 15 44 -41 49 -51
19 -41 -22 8 -85 20 -140 27 l-100 13 68 33 c82 40 25 73 -67 38 -66 -26 -91
-26 -91 -3 0 68 315 77 405 11z m-804 0 c57 -29 80 -69 39 -69 -11 0 -20 9
-20 20 0 11 -24 20 -54 20 -42 0 -49 -5 -30 -24 19 -19 5 -29 -61 -47 -47 -13
-103 -31 -125 -40 -39 -15 -39 -14 -4 25 31 35 31 43 5 65 -37 31 -71 11 -71
-40 0 -22 -18 -55 -40 -73 -49 -42 -17 -68 58 -47 29 9 122 22 208 30 135 13
155 19 144 48 -11 30 -9 30 20 1 69 -68 -70 -278 -184 -278 -27 0 -43 -8 -38
-18 6 -9 -18 -24 -53 -33 l-65 -16 76 -8 77 -8 -82 -88 c-44 -48 -81 -102 -81
-119 0 -16 -9 -30 -20 -30 -11 0 -20 17 -20 37 0 70 -29 64 -52 -11 -13 -42
-25 -60 -26 -41 -1 19 -15 35 -32 35 -16 0 -29 16 -28 35 1 21 5 25 11 10 6
-14 19 -25 30 -25 11 0 12 11 4 25 -9 14 -20 60 -26 103 -13 96 -50 114 -78
38 l-22 -56 5 70 c3 54 12 69 39 64 29 -5 35 10 35 95 0 100 27 135 49 64 18
-55 94 -118 161 -133 59 -13 59 -13 -10 23 -94 50 -166 160 -148 226 7 28 13
65 12 82 -3 92 272 153 397 88z m303 -199 c19 -53 62 -125 95 -159 96 -99 69
-169 -41 -110 -76 41 -212 39 -260 -3 -118 -102 -120 -49 -7 178 51 101 87
192 80 202 -7 11 11 13 43 4 43 -11 63 -37 90 -112z m126 70 c-18 -28 57 -25
86 4 19 19 24 17 24 -7 0 -24 32 -35 135 -45 74 -7 146 -15 159 -16 87 -9
-112 -196 -209 -196 -197 0 -383 260 -199 278 9 1 11 -7 4 -18z m759 -400
c-10 -34 -17 -41 -24 -20 -6 17 -29 50 -51 75 l-41 45 44 0 c23 0 44 11 44 25
1 14 10 3 21 -25 11 -27 14 -72 7 -100z m-650 -56 c15 -35 44 -69 64 -75 31
-10 33 -19 15 -53 -19 -36 -18 -40 10 -30 17 7 32 3 32 -8 0 -15 -28 -16 -85
-5 -102 20 -554 18 -660 -3 -87 -17 -104 21 -37 84 21 20 41 53 45 74 15 78
63 80 178 10 60 -37 126 -64 147 -61 46 8 95 53 78 71 -7 6 5 12 27 12 22 0
57 13 78 29 52 40 74 31 108 -45z m181 -195 c0 -75 -35 -187 -73 -231 -32 -37
-35 -78 -6 -78 12 0 15 11 7 23 -10 16 -3 19 21 10 23 -9 46 -1 63 22 23 30
24 27 9 -28 -9 -35 -12 -69 -6 -76 13 -12 -135 -151 -161 -151 -9 0 -40 -18
-70 -40 -64 -47 -317 -77 -375 -45 -25 14 -47 14 -70 0 -48 -30 -152 48 -177
131 -10 35 -28 94 -39 130 -19 60 -17 65 16 54 31 -10 36 -4 26 34 -7 25 -16
34 -20 20 -16 -47 -40 -23 -61 61 -39 155 -43 183 -29 234 13 49 14 48 24 -17
6 -37 25 -74 41 -82 17 -8 58 -29 92 -46 154 -80 492 -77 608 6 46 33 68 39
79 22 29 -47 67 33 55 113 -11 69 -10 72 17 36 16 -21 29 -67 29 -102z m360
87 c-24 -20 -52 -31 -62 -25 -27 17 27 66 69 63 33 -3 33 -6 -7 -38z m-640
-141 c0 -31 -23 -35 -210 -35 -169 0 -210 6 -210 29 0 36 29 41 244 41 154 0
176 -4 176 -35z m-955 -1204 c-7 -12 2 -9 20 5 36 29 135 -37 135 -90 0 -43
70 -99 161 -130 107 -35 117 -60 39 -90 -33 -12 -60 -16 -60 -7 0 9 -24 13
-54 10 -85 -10 -343 174 -345 246 -1 43 84 128 101 101 9 -13 10 -34 3 -45z
m2812 -274 l73 -34 -70 -4 c-140 -8 -193 20 -158 84 17 33 26 35 52 14 17 -14
63 -41 103 -60z m-1949 -109 c9 -22 -16 -28 -119 -28 -92 0 -128 7 -124 25 10
52 223 55 243 3z m-1712 -41 c-24 -24 -41 -26 -69 -11 -30 18 -32 23 -7 31
106 35 125 30 76 -20z"/>
<path d="M2460 2310 c-106 -17 -139 -28 -113 -40 38 -16 248 23 282 53 12 11
12 16 0 14 -10 -2 -86 -14 -169 -27z"/>
<path d="M3007 2345 c22 -35 205 -70 277 -53 65 16 65 17 -34 29 -55 7 -135
19 -178 28 -52 11 -74 10 -65 -4z"/>
<path d="M2815 1565 c-41 -4 -75 -16 -75 -26 0 -11 -27 -19 -60 -19 -72 0 -75
-21 -13 -89 54 -58 134 -66 263 -26 109 34 128 115 26 112 -113 -4 -128 4 -66
32 62 28 54 30 -75 16z"/>
<path d="M3055 3017 c-30 -22 -55 -53 -55 -69 0 -32 71 -38 91 -7 7 12 22 14
36 4 38 -29 146 -27 172 3 18 23 15 31 -20 42 -28 9 -51 4 -63 -13 -15 -21
-17 -19 -9 8 8 24 1 35 -24 35 -19 0 -44 8 -54 19 -12 11 -40 3 -74 -22z"/>
<path d="M2825 2968 c-36 -15 -65 -37 -65 -48 0 -18 12 -22 85 -28 14 -1 22
10 19 25 -3 15 5 40 18 55 27 33 27 33 -57 -4z"/>
<path d="M4172 2328 c-18 -47 -17 -48 48 -48 33 0 60 9 60 19 0 11 -13 15 -30
8 -19 -7 -30 1 -30 21 0 41 -32 42 -48 0z"/>
<path d="M3307 1040 c-69 -28 -76 -60 -13 -60 43 1 49 5 26 20 -26 17 -25 19
5 20 19 0 35 9 35 20 0 11 -2 19 -5 19 -3 -1 -24 -9 -48 -19z"/>
<path d="M2939 757 c-31 -73 -179 -79 -179 -7 0 14 -14 31 -32 38 -45 17 -48
16 -48 -19 0 -23 -12 -28 -40 -19 -28 9 -40 4 -40 -19 0 -23 20 -31 76 -31 54
0 89 -13 118 -45 112 -124 159 -124 153 -1 -3 51 5 65 40 70 24 4 40 19 37 34
-4 17 6 23 26 15 18 -7 27 -5 21 5 -29 48 -109 35 -132 -21z"/>
<path d="M2991 482 c-6 -11 -38 -25 -70 -32 -76 -16 -99 -70 -30 -70 61 0 149
54 149 92 0 32 -32 38 -49 10z"/>
<path d="M3239 245 c-94 -7 -167 -78 -145 -140 16 -43 41 -27 53 33 10 52 20
58 122 71 61 8 106 22 100 32 -6 11 -18 17 -25 15 -8 -2 -55 -7 -105 -11z"/>
<path d="M1590 167 c66 -55 31 -89 -150 -144 -64 -20 -60 -21 55 -16 69 3 134
14 145 25 26 26 -5 133 -41 143 -18 5 -21 1 -9 -8z"/>
<path d="M2114 121 c11 -41 30 -50 146 -70 65 -10 67 -10 20 12 -27 13 -78 41
-113 61 -63 37 -63 37 -53 -3z"/>
<path d="M3714 127 c-21 -20 25 -88 72 -106 81 -30 103 60 23 96 -58 26 -77
28 -95 10z"/>
<path d="M1765 106 c-18 -7 -19 -20 -4 -48 28 -52 78 -50 65 2 -13 47 -27 58
-61 46z"/>
<path d="M3534 80 c-6 -25 0 -40 15 -40 33 0 75 49 57 67 -25 26 -62 12 -72
-27z"/>
</g>
</svg>
